<svg xmlns="http://www.w3.org/2000/svg" viewBox="-9488.079 14 111.481 70"><defs><style>.cls-1{fill:#fff}</style></defs><g id="Group_44" data-name="Group 44" transform="translate(-9488.079 14)"><g id="Group_43" data-name="Group 43" transform="translate(0 55.926)"><g id="Group_36" data-name="Group 36" transform="translate(0 .026)"><path id="Path_75" data-name="Path 75" class="cls-1" d="M.422 213.326a5.162 5.162 0 0 1 3.7-1.426c2.746 0 3.908 1.32 3.908 3.934v4.014a10.467 10.467 0 0 0 .132 1.611H6.68a6.371 6.371 0 0 1-.106-1.4h-.026a3.5 3.5 0 0 1-3.063 1.641c-1.927 0-3.485-.981-3.485-2.776 0-3.089 3.591-3.274 5.862-3.274h.607v-.29c0-1.347-.845-2.06-2.3-2.06a4.211 4.211 0 0 0-2.773 1zm4.489 3.644c-1.98 0-3.248.528-3.248 1.8 0 1.162.871 1.611 2.06 1.611a2.66 2.66 0 0 0 2.746-2.8v-.607z" transform="translate(0 -211.9)"/></g><g id="Group_37" data-name="Group 37" transform="translate(13.071 .053)"><path id="Path_76" data-name="Path 76" class="cls-1" d="M58.346 219.842a4.793 4.793 0 0 1-4.146 1.928 4.6 4.6 0 0 1-4.7-4.885A4.661 4.661 0 0 1 54.279 212c2.614 0 4.41 1.8 4.41 4.885v.5h-7.525a3.116 3.116 0 0 0 3.036 2.985 3.493 3.493 0 0 0 2.957-1.4zM57 216.04a2.575 2.575 0 0 0-2.8-2.614 2.862 2.862 0 0 0-3.037 2.614z" transform="translate(-49.5 -212)"/></g><g id="Group_38" data-name="Group 38" transform="translate(27.329 .026)"><path id="Path_77" data-name="Path 77" class="cls-1" d="M103.579 214.356c0-.845-.079-1.584-.079-2.218h1.479c0 .5.026 1 .026 1.532h.053a3.346 3.346 0 0 1 3.089-1.769 1.775 1.775 0 0 1 .634.106l-.106 1.584a2.976 2.976 0 0 0-.845-.132c-1.9 0-2.72 1.32-2.72 3.459v4.542h-1.558v-7.1z" transform="translate(-103.5 -211.9)"/></g><path id="Path_78" data-name="Path 78" class="cls-1" d="M142.264 211.9a4.886 4.886 0 1 1-4.964 4.885 4.735 4.735 0 0 1 4.964-4.885m0 8.344a3.463 3.463 0 1 0-3.3-3.459 3.246 3.246 0 0 0 3.3 3.459" transform="translate(-101.046 -211.874)"/><g id="Group_39" data-name="Group 39" transform="translate(50.328 .026)"><path id="Path_79" data-name="Path 79" class="cls-1" d="M191.815 219a2.833 2.833 0 0 0 2.376 1.241c.977 0 2.06-.422 2.06-1.426s-1-1.241-1.98-1.479c-1.769-.4-3.274-.766-3.274-2.693 0-1.822 1.743-2.746 3.485-2.746a3.391 3.391 0 0 1 3.169 1.69l-1.294.845a2.212 2.212 0 0 0-1.98-1.109c-.845 0-1.822.422-1.822 1.294 0 .766 1.109 1.109 2.35 1.347 1.637.317 3.037.924 3.037 2.773 0 2.112-1.875 2.931-3.723 2.931a3.945 3.945 0 0 1-3.618-1.743z" transform="translate(-190.6 -211.9)"/></g><path id="Path_80" data-name="Path 80" class="cls-1" d="M236.6 212.138h1.558v1.347h.026a4.26 4.26 0 0 1 3.353-1.584 4.888 4.888 0 0 1 .238 9.77 4.068 4.068 0 0 1-3.591-1.9h-.026v6.179H236.6zm4.859 8.106a3.463 3.463 0 1 0-3.3-3.459 3.246 3.246 0 0 0 3.3 3.459" transform="translate(-174.125 -211.874)"/><g id="Group_40" data-name="Group 40" transform="translate(76.918 .026)"><path id="Path_81" data-name="Path 81" class="cls-1" d="M291.7 213.326a5.162 5.162 0 0 1 3.7-1.426c2.746 0 3.908 1.32 3.908 3.934v4.014a10.47 10.47 0 0 0 .132 1.611h-1.479a6.371 6.371 0 0 1-.106-1.4h-.026a3.5 3.5 0 0 1-3.063 1.637c-1.9 0-3.459-.951-3.459-2.773 0-3.089 3.591-3.274 5.862-3.274h.607v-.29c0-1.347-.845-2.06-2.3-2.06a4.211 4.211 0 0 0-2.773 1zm4.515 3.644c-1.98 0-3.248.528-3.248 1.8 0 1.162.871 1.611 2.06 1.611a2.66 2.66 0 0 0 2.746-2.8v-.607z" transform="translate(-291.3 -211.9)"/></g><g id="Group_41" data-name="Group 41" transform="translate(89.989)"><path id="Path_82" data-name="Path 82" class="cls-1" d="M347.929 214.388a2.86 2.86 0 0 0-2.35-1.135c-2.086 0-3.142 1.558-3.142 3.459a3.213 3.213 0 0 0 3.142 3.459 2.768 2.768 0 0 0 2.376-1.162l1.162 1.083a4.519 4.519 0 0 1-3.512 1.479 4.886 4.886 0 0 1 0-9.77 4.725 4.725 0 0 1 3.591 1.479z" transform="translate(-340.8 -211.8)"/></g><g id="Group_42" data-name="Group 42" transform="translate(102.293 .053)"><path id="Path_83" data-name="Path 83" class="cls-1" d="M396.246 219.842a4.793 4.793 0 0 1-4.146 1.928 4.6 4.6 0 0 1-4.7-4.885 4.661 4.661 0 0 1 4.779-4.885c2.614 0 4.41 1.8 4.41 4.885v.5h-7.525a3.116 3.116 0 0 0 3.037 2.984 3.493 3.493 0 0 0 2.957-1.4zm-1.32-3.8a2.575 2.575 0 0 0-2.8-2.614 2.862 2.862 0 0 0-3.037 2.614z" transform="translate(-387.4 -212)"/></g></g><path id="Rectangle_41" data-name="Rectangle 41" class="cls-1" transform="translate(38.182 25.745)" d="M0 0h12.014v17.639H0z"/><path id="Rectangle_42" data-name="Rectangle 42" class="cls-1" transform="translate(56.586 25.745)" d="M0 0h12.014v17.639H0z"/><path id="Path_84" data-name="Path 84" class="cls-1" d="M20.455 11.592h-7.367V0H1.1v21.916h34.274a15.946 15.946 0 0 0-14.919-10.324" transform="translate(-.81)"/><path id="Path_85" data-name="Path 85" class="cls-1" d="M20.455 115.139a15.9 15.9 0 0 0 15.9-15.9 12.866 12.866 0 0 0-.106-1.743H23.808c-.053 6.02-1.8 7.393-5.915 7.393h-4.805V97.5H1.1v17.639h19.355z" transform="translate(-.81 -71.755)"/><path id="Path_86" data-name="Path 86" class="cls-1" d="M353.614 97.5H341.6v7.077c0 4.753 3.01 10.536 10.694 10.536h10.14v-9.77h-4.462c-4.515 0-4.383-2.878-4.383-3.829V97.5z" transform="translate(-251.4 -71.755)"/><path id="Path_87" data-name="Path 87" class="cls-1" d="M362.46 21.916V11.592h-8.846V0H341.6v21.916z" transform="translate(-251.4)"/><path id="Path_88" data-name="Path 88" class="cls-1" d="M284.026 115.139h12.014V97.5H284z" transform="translate(-209.009 -71.755)"/><path id="Path_89" data-name="Path 89" class="cls-1" d="M193.449 54.224v-.053c0-7.129-5.492-10.272-12.041-10.272h-8.555l-3.829 3.829L165.2 43.9h-20.6v10.324z" transform="translate(-106.418 -32.308)"/></g></svg>